HIERARCHY
ROOT Hips
{
	OFFSET 0.000000 0.000000 0.000000 
	CHANNELS 6 Xposition Yposition Zposition Yrotation Zrotation Xrotation 
	JOINT Lumbar
	{
		OFFSET 0.000000 0.000000 0.000000 
		CHANNELS 3 Zrotation Xrotation Yrotation
		JOINT Neck
		{
			OFFSET 0.000000 0.445665 0.000000 
			CHANNELS 3 Zrotation Xrotation Yrotation
			End Site
			{
				OFFSET 0.000000 0.227535 0.000000 
			}
		}
		JOINT RightShoulder
		{
			OFFSET 0.019635 0.377685 0.194865 
			CHANNELS 3 Zrotation Xrotation Yrotation
			JOINT RightElbow
			{
				OFFSET 0.000000 -0.243375 0.000000 
				CHANNELS 2 Zrotation Yrotation
				JOINT RightWrist
				{
					OFFSET 0.000000 -0.264825 0.000000 
					CHANNELS 2 Zrotation Xrotation
					End Site
					{
						OFFSET 0.006600 -0.176220 0.000990 
					}
				}
			}
		}
		JOINT LeftShoulder
		{
			OFFSET 0.019635 0.377685 -0.194865 
			CHANNELS 3 Zrotation Xrotation Yrotation
			JOINT LeftElbow
			{
				OFFSET 0.000000 -0.243375 0.000000 
				CHANNELS 2 Zrotation Yrotation
				JOINT LeftWrist
				{
					OFFSET 0.000000 -0.264825 0.000000 
					CHANNELS 2 Zrotation Xrotation
					End Site
					{
						OFFSET 0.006600 -0.176220 -0.000990 
					}
				}
			}
		}
	}
	JOINT RightHip
	{
		OFFSET 0.052140 -0.069960 0.075570 
		CHANNELS 3 Zrotation Xrotation Yrotation
		JOINT RightKnee
		{
			OFFSET 0.000000 -0.402270 0.000000 
			CHANNELS 1 Zrotation
			JOINT RightAnkle
			{
				OFFSET 0.000000 -0.404085 0.000000 
				CHANNELS 3 Zrotation Xrotation Yrotation
				End Site
				{
					OFFSET 0.204105 -0.089430 0.008415 
				}
			}
		}
	}
	JOINT LeftHip
	{
		OFFSET 0.052140 -0.069960 -0.075570 
		CHANNELS 3 Zrotation Xrotation Yrotation
		JOINT LeftKnee
		{
			OFFSET 0.000000 -0.402270 0.000000 
			CHANNELS 1 Zrotation
			JOINT LeftAnkle
			{
				OFFSET 0.000000 -0.404085 0.000000 
				CHANNELS 3 Zrotation Xrotation Yrotation
				End Site
				{
					OFFSET 0.204105 -0.089430 -0.008415 
				}
			}
		}
	}
}
MOTION
Frames: 14
Frame Time: 0.02
0 0.95578 0 188.04194 0 -3.44613 5.34997 4.67479 -6.89252 -13.55742 2.10281 -2.91586 15.42177 -15.52162 24.3619 63.73458 117.50615 -30.64928 -8.43617 9.17994 10.52893 -13.06225 72.25393 -64.03177 10.49213 8.86634 -6.19852 7.29239 0.46499 -2.78199 0.16518 -4.69346 -11.14699 -3.14361 1.58733 -6.63639 -5.7258 4.74928 3.97472 6.57367
0.00017 0.95546 -0.00047 187.87106 0 -3.46325 5.46967 4.58999 -6.65254 -14.3473 2.0245 -2.71998 18.07845 -14.4942 24.06143 54.47992 112.02069 -25.52451 -8.46346 12.58354 9.71635 -13.42705 61.83631 -62.14726 11.19283 9.07862 -6.13872 7.28486 -0.50306 -2.85524 0.3713 -4.35119 -9.99406 -3.16282 1.62337 -6.51827 -5.7076 4.83072 4.01014 6.59709
0.00032 0.95514 -0.00094 187.70233 0 -3.48005 5.58849 4.50531 -6.41277 -15.13342 1.94666 -2.52414 20.70409 -13.47698 23.70509 45.28618 106.56161 -20.4389 -8.48035 15.95488 8.9119 -13.77573 51.4861 -60.29567 11.8676 9.27988 -6.08008 7.27757 -1.46012 -2.92744 0.5758 -4.01308 -8.85447 -3.1824 1.65917 -6.40133 -5.68906 4.91175 4.04523 6.61981
0.00046 0.95482 -0.00141 187.54016 0 -3.49581 5.70542 4.42114 -6.16889 -15.91207 1.86786 -2.32547 23.24009 -12.48685 23.08776 36.24393 101.14753 -15.46228 -8.44809 19.24265 8.13065 -14.10296 41.30096 -58.57415 12.42962 9.43111 -6.02542 7.27112 -2.38037 -2.99568 0.77481 -3.69003 -7.75903 -3.20365 1.69438 -6.28727 -5.66854 4.99144 4.07894 6.63946
0.00073 0.95448 -0.0019 187.34278 0 -3.51715 5.83292 4.33528 -5.94364 -16.73011 1.79164 -2.14053 26.26127 -11.34882 23.81138 26.39694 95.48663 -9.91115 -8.66683 22.98785 7.22488 -14.59127 30.23791 -56.18375 13.56984 9.83774 -5.94957 7.26017 -3.49287 -3.08434 1.00165 -3.28931 -6.43218 -3.21604 1.7327 -6.15711 -5.65794 5.07767 4.11952 6.67476
0.0007 0.95418 -0.00233 187.22034 0 -3.52661 5.93756 4.25241 -5.68134 -17.46412 1.71175 -1.92758 28.24624 -10.52773 21.72645 18.2634 90.35918 -5.57873 -8.36083 25.7518 6.58446 -14.70622 21.04514 -55.19674 13.499 9.71034 -5.91868 7.25879 -4.19949 -3.13011 1.17024 -3.05182 -5.59441 -3.24716 1.76443 -6.0617 -5.62677 5.15037 4.14582 6.67731
-0.00014 0.95395 -0.0026 187.30689 0 -3.50288 5.98267 4.18155 -5.28713 -17.9775 1.60448 -1.6211 27.37863 -10.56529 11.2979 14.79618 86.5671 -4.63201 -6.48884 25.86825 6.67692 -14.02793 16.93104 -58.3189 9.846 7.9932 -6.0152 7.28446 -3.74767 -3.05084 1.16944 -3.28813 -6.14854 -3.33268 1.77781 -6.05835 -5.53251 5.18295 4.12949 6.58281
-0.00128 0.95375 -0.00281 187.46877 0 -3.4672 6.00403 4.113 -4.86022 -18.40467 1.49626 -1.2889 25.46274 -10.9252 -1.87062 13.06713 83.33462 -4.91104 -4.10593 24.98352 7.03732 -12.9298 14.71653 -62.8195 5.00879 5.75532 -6.15661 7.31973 -2.89238 -2.92934 1.11122 -3.68567 -7.18954 -3.4367 1.7846 -6.09074 -5.41851 5.20234 4.09927 6.45633
-0.00229 0.95353 -0.00306 187.59504 0 -3.4372 6.03403 4.04074 -4.46741 -18.86426 1.4 -0.97868 24.0188 -11.14942 -13.41538 10.581 79.93113 -4.61493 -2.03116 24.51537 7.27527 -11.86599 11.68385 -66.54007 0.86486 3.82933 -6.27551 7.35022 -2.24563 -2.8314 1.0851 -3.99429 -7.98163 -3.53064 1.7945 -6.10939 -5.31757 5.22975 4.07758 6.3487
-0.00328 0.95332 -0.00327 187.72729 0 -3.40612 6.07331 3.9794 -3.99468 -19.3516 1.2564 -0.62533 22.59178 -11.33096 -26.55237 7.95618 76.17699 -4.39485 0.36154 24.2061 7.51622 -11.45613 8.46097 -70.9039 -3.92826 1.58941 -6.40334 7.38238 -1.49306 -2.7152 1.03445 -4.36728 -8.89011 -3.63166 1.80382 -6.11772 -5.19953 5.24899 4.04681 6.22295
-0.00437 0.9531 -0.00354 187.86473 0 -3.37448 6.08737 3.89626 -3.67911 -19.76152 1.20954 -0.35536 20.88287 -11.67431 -37.02931 6.03406 73.28573 -4.30832 2.21645 23.33204 7.81442 -9.59272 6.08626 -74.26126 -7.65687 -0.12467 -6.52318 7.41343 -0.86454 -2.62678 1.02022 -4.64659 -9.67217 -3.72229 1.81289 -6.15575 -5.11222 5.2816 4.03129 6.12722
-0.00569 0.95283 -0.00392 187.99976 0 -3.34417 6.03999 3.74906 -3.81842 -19.97216 1.44372 -0.32505 18.63434 -12.41631 -39.45509 5.61607 72.63908 -4.28397 2.43574 21.11185 8.20595 -3.74413 5.5788 -74.45608 -8.10317 -0.22124 -6.61046 7.43845 -0.68134 -2.62749 1.12971 -4.60907 -9.98295 -3.77998 1.82202 -6.26901 -5.11631 5.35889 4.0643 6.12316
-0.0071 0.95255 -0.00435 188.13687 0 -3.31377 5.96766 3.58056 -4.11464 -20.10927 1.77261 -0.37904 16.14328 -13.30387 -39.12164 5.84751 72.84022 -4.35378 2.10095 18.365 8.64541 3.54052 5.86147 -73.60189 -7.44754 0.22324 -6.68796 7.46217 -0.63596 -2.65734 1.27626 -4.47469 -10.15025 -3.82649 1.8313 -6.41038 -5.15171 5.44928 4.11261 6.15024
-0.00846 0.95228 -0.00476 188.27218 0 -3.28341 5.90516 3.42384 -4.3305 -20.28421 2.04929 -0.39229 13.7728 -14.10515 -40.0681 5.78822 72.65558 -4.38372 2.03676 15.8784 9.06272 10.11705 5.78828 -73.25474 -7.33103 0.39367 -6.76973 7.48689 -0.52501 -2.67236 1.39975 -4.39758 -10.38532 -3.87796 1.84102 -6.53777 -5.17158 5.53064 4.15187 6.16237
